<svg width="170" height="52" viewBox="0 0 170 52" fill="none" xmlns="http://www.w3.org/2000/svg">
<rect x="2.5" y="2.5" width="165" height="47" rx="23.5" stroke="black" stroke-width="5"/>
<mask id="path-2-outside-1_225_16" maskUnits="userSpaceOnUse" x="26" y="13" width="82" height="26" fill="black">
<rect fill="white" x="26" y="13" width="82" height="26"/>
<path d="M39.8438 31.8125C39.8438 32.5729 39.6979 33.2865 39.4062 33.9531C39.125 34.6198 38.7344 35.2031 38.2344 35.7031C37.7344 36.2031 37.151 36.599 36.4844 36.8906C35.8177 37.1719 35.1042 37.3125 34.3438 37.3125H32.75C31.9896 37.3125 31.2708 37.1719 30.5938 36.8906C29.9271 36.599 29.3438 36.2031 28.8438 35.7031C28.3438 35.2031 27.9479 34.6198 27.6562 33.9531C27.375 33.2865 27.2344 32.5729 27.2344 31.8125V19.7812C27.2344 19.0208 27.375 18.3073 27.6562 17.6406C27.9479 16.974 28.3438 16.3906 28.8438 15.8906C29.3438 15.3906 29.9271 15 30.5938 14.7188C31.2708 14.4271 31.9896 14.2812 32.75 14.2812H34.3438C35.1042 14.2812 35.8177 14.4271 36.4844 14.7188C37.151 15 37.7344 15.3906 38.2344 15.8906C38.7344 16.3906 39.125 16.974 39.4062 17.6406C39.6979 18.3073 39.8438 19.0208 39.8438 19.7812V20.6875L37.8281 21V19.7812C37.8281 19.2812 37.7344 18.8177 37.5469 18.3906C37.3594 17.9531 37.1042 17.5729 36.7812 17.25C36.4583 16.9271 36.0781 16.6719 35.6406 16.4844C35.2135 16.2969 34.75 16.2031 34.25 16.2031H32.8438C32.3438 16.2031 31.875 16.2969 31.4375 16.4844C31.0104 16.6719 30.6302 16.9271 30.2969 17.25C29.974 17.5729 29.7188 17.9531 29.5312 18.3906C29.3438 18.8177 29.25 19.2812 29.25 19.7812V31.8125C29.25 32.3125 29.3438 32.7812 29.5312 33.2188C29.7188 33.6458 29.974 34.026 30.2969 34.3594C30.6302 34.6823 31.0104 34.9375 31.4375 35.125C31.875 35.3125 32.3438 35.4062 32.8438 35.4062H34.25C34.75 35.4062 35.2135 35.3125 35.6406 35.125C36.0781 34.9375 36.4583 34.6823 36.7812 34.3594C37.1042 34.026 37.3594 33.6458 37.5469 33.2188C37.7344 32.7812 37.8281 32.3125 37.8281 31.8125V30.5938L39.8438 30.9219V31.8125ZM54.875 37L48.7969 27.4375H46.0312V37H44.0156V14.5938H51.125C51.8854 14.5938 52.599 14.7396 53.2656 15.0312C53.9323 15.3125 54.5156 15.7031 55.0156 16.2031C55.5156 16.7031 55.9062 17.2917 56.1875 17.9688C56.4792 18.6354 56.625 19.349 56.625 20.1094V21.9219C56.625 22.6823 56.4792 23.401 56.1875 24.0781C55.9062 24.7448 55.5156 25.3281 55.0156 25.8281C54.5156 26.3281 53.9323 26.724 53.2656 27.0156C52.599 27.2969 51.8854 27.4375 51.125 27.4375L57.2031 37H54.875ZM54.6094 20.1094C54.6094 19.6094 54.5156 19.1458 54.3281 18.7188C54.1406 18.2812 53.8854 17.901 53.5625 17.5781C53.2396 17.2448 52.8594 16.9844 52.4219 16.7969C51.9948 16.6094 51.5312 16.5156 51.0312 16.5156H46.0312V25.5156H51.0312C51.5312 25.5156 51.9948 25.4219 52.4219 25.2344C52.8594 25.0469 53.2396 24.7917 53.5625 24.4688C53.8854 24.1354 54.1406 23.7552 54.3281 23.3281C54.5156 22.8906 54.6094 22.4219 54.6094 21.9219V20.1094ZM61.0625 37V14.5938H73.6719V16.5156H63.0781V24.8438H71.6562V26.7656H63.0781V35.0781H73.6719V37H61.0625ZM85.9375 31.7812H78.8438L77.375 37H75.2812L81.8438 14.5938H82.9062L89.5 37H87.4219L85.9375 31.7812ZM79.3906 29.8594H85.4062L82.4531 19.5312L82.3906 18.7031L82.3281 19.5312L79.3906 29.8594ZM102.906 37L96.8281 27.4375H94.0625V37H92.0469V14.5938H99.1562C99.9167 14.5938 100.63 14.7396 101.297 15.0312C101.964 15.3125 102.547 15.7031 103.047 16.2031C103.547 16.7031 103.938 17.2917 104.219 17.9688C104.51 18.6354 104.656 19.349 104.656 20.1094V21.9219C104.656 22.6823 104.51 23.401 104.219 24.0781C103.938 24.7448 103.547 25.3281 103.047 25.8281C102.547 26.3281 101.964 26.724 101.297 27.0156C100.63 27.2969 99.9167 27.4375 99.1562 27.4375L105.234 37H102.906ZM102.641 20.1094C102.641 19.6094 102.547 19.1458 102.359 18.7188C102.172 18.2812 101.917 17.901 101.594 17.5781C101.271 17.2448 100.891 16.9844 100.453 16.7969C100.026 16.6094 99.5625 16.5156 99.0625 16.5156H94.0625V25.5156H99.0625C99.5625 25.5156 100.026 25.4219 100.453 25.2344C100.891 25.0469 101.271 24.7917 101.594 24.4688C101.917 24.1354 102.172 23.7552 102.359 23.3281C102.547 22.8906 102.641 22.4219 102.641 21.9219V20.1094Z"/>
</mask>
<path d="M39.8438 31.8125C39.8438 32.5729 39.6979 33.2865 39.4062 33.9531C39.125 34.6198 38.7344 35.2031 38.2344 35.7031C37.7344 36.2031 37.151 36.599 36.4844 36.8906C35.8177 37.1719 35.1042 37.3125 34.3438 37.3125H32.75C31.9896 37.3125 31.2708 37.1719 30.5938 36.8906C29.9271 36.599 29.3438 36.2031 28.8438 35.7031C28.3438 35.2031 27.9479 34.6198 27.6562 33.9531C27.375 33.2865 27.2344 32.5729 27.2344 31.8125V19.7812C27.2344 19.0208 27.375 18.3073 27.6562 17.6406C27.9479 16.974 28.3438 16.3906 28.8438 15.8906C29.3438 15.3906 29.9271 15 30.5938 14.7188C31.2708 14.4271 31.9896 14.2812 32.75 14.2812H34.3438C35.1042 14.2812 35.8177 14.4271 36.4844 14.7188C37.151 15 37.7344 15.3906 38.2344 15.8906C38.7344 16.3906 39.125 16.974 39.4062 17.6406C39.6979 18.3073 39.8438 19.0208 39.8438 19.7812V20.6875L37.8281 21V19.7812C37.8281 19.2812 37.7344 18.8177 37.5469 18.3906C37.3594 17.9531 37.1042 17.5729 36.7812 17.25C36.4583 16.9271 36.0781 16.6719 35.6406 16.4844C35.2135 16.2969 34.75 16.2031 34.25 16.2031H32.8438C32.3438 16.2031 31.875 16.2969 31.4375 16.4844C31.0104 16.6719 30.6302 16.9271 30.2969 17.25C29.974 17.5729 29.7188 17.9531 29.5312 18.3906C29.3438 18.8177 29.25 19.2812 29.25 19.7812V31.8125C29.25 32.3125 29.3438 32.7812 29.5312 33.2188C29.7188 33.6458 29.974 34.026 30.2969 34.3594C30.6302 34.6823 31.0104 34.9375 31.4375 35.125C31.875 35.3125 32.3438 35.4062 32.8438 35.4062H34.25C34.75 35.4062 35.2135 35.3125 35.6406 35.125C36.0781 34.9375 36.4583 34.6823 36.7812 34.3594C37.1042 34.026 37.3594 33.6458 37.5469 33.2188C37.7344 32.7812 37.8281 32.3125 37.8281 31.8125V30.5938L39.8438 30.9219V31.8125ZM54.875 37L48.7969 27.4375H46.0312V37H44.0156V14.5938H51.125C51.8854 14.5938 52.599 14.7396 53.2656 15.0312C53.9323 15.3125 54.5156 15.7031 55.0156 16.2031C55.5156 16.7031 55.9062 17.2917 56.1875 17.9688C56.4792 18.6354 56.625 19.349 56.625 20.1094V21.9219C56.625 22.6823 56.4792 23.401 56.1875 24.0781C55.9062 24.7448 55.5156 25.3281 55.0156 25.8281C54.5156 26.3281 53.9323 26.724 53.2656 27.0156C52.599 27.2969 51.8854 27.4375 51.125 27.4375L57.2031 37H54.875ZM54.6094 20.1094C54.6094 19.6094 54.5156 19.1458 54.3281 18.7188C54.1406 18.2812 53.8854 17.901 53.5625 17.5781C53.2396 17.2448 52.8594 16.9844 52.4219 16.7969C51.9948 16.6094 51.5312 16.5156 51.0312 16.5156H46.0312V25.5156H51.0312C51.5312 25.5156 51.9948 25.4219 52.4219 25.2344C52.8594 25.0469 53.2396 24.7917 53.5625 24.4688C53.8854 24.1354 54.1406 23.7552 54.3281 23.3281C54.5156 22.8906 54.6094 22.4219 54.6094 21.9219V20.1094ZM61.0625 37V14.5938H73.6719V16.5156H63.0781V24.8438H71.6562V26.7656H63.0781V35.0781H73.6719V37H61.0625ZM85.9375 31.7812H78.8438L77.375 37H75.2812L81.8438 14.5938H82.9062L89.5 37H87.4219L85.9375 31.7812ZM79.3906 29.8594H85.4062L82.4531 19.5312L82.3906 18.7031L82.3281 19.5312L79.3906 29.8594ZM102.906 37L96.8281 27.4375H94.0625V37H92.0469V14.5938H99.1562C99.9167 14.5938 100.63 14.7396 101.297 15.0312C101.964 15.3125 102.547 15.7031 103.047 16.2031C103.547 16.7031 103.938 17.2917 104.219 17.9688C104.51 18.6354 104.656 19.349 104.656 20.1094V21.9219C104.656 22.6823 104.51 23.401 104.219 24.0781C103.938 24.7448 103.547 25.3281 103.047 25.8281C102.547 26.3281 101.964 26.724 101.297 27.0156C100.63 27.2969 99.9167 27.4375 99.1562 27.4375L105.234 37H102.906ZM102.641 20.1094C102.641 19.6094 102.547 19.1458 102.359 18.7188C102.172 18.2812 101.917 17.901 101.594 17.5781C101.271 17.2448 100.891 16.9844 100.453 16.7969C100.026 16.6094 99.5625 16.5156 99.0625 16.5156H94.0625V25.5156H99.0625C99.5625 25.5156 100.026 25.4219 100.453 25.2344C100.891 25.0469 101.271 24.7917 101.594 24.4688C101.917 24.1354 102.172 23.7552 102.359 23.3281C102.547 22.8906 102.641 22.4219 102.641 21.9219V20.1094Z" fill="black"/>
<path d="M39.4062 33.9531L38.49 33.5523L38.4849 33.5644L39.4062 33.9531ZM36.4844 36.8906L36.8731 37.8121L36.8852 37.8068L36.4844 36.8906ZM30.5938 36.8906L30.1929 37.8068L30.2015 37.8105L30.2101 37.8141L30.5938 36.8906ZM27.6562 33.9531L26.7348 34.3419L26.7401 34.3539L27.6562 33.9531ZM27.6562 17.6406L26.74 17.2398L26.7349 17.2519L27.6562 17.6406ZM30.5938 14.7188L30.9825 15.6401L30.9894 15.6372L30.5938 14.7188ZM36.4844 14.7188L36.0835 15.635L36.0957 15.6401L36.4844 14.7188ZM39.4062 17.6406L38.4848 18.0294L38.4901 18.0414L39.4062 17.6406ZM39.8438 20.6875L39.997 21.6757L40.8438 21.5444V20.6875H39.8438ZM37.8281 21H36.8281V22.167L37.9813 21.9882L37.8281 21ZM37.5469 18.3906L36.6277 18.7846L36.6312 18.7926L37.5469 18.3906ZM35.6406 16.4844L35.2386 17.4001L35.2467 17.4035L35.6406 16.4844ZM31.4375 16.4844L31.0436 15.5652L31.0355 15.5687L31.4375 16.4844ZM30.2969 17.25L29.6011 16.5318L29.5954 16.5373L29.5898 16.5429L30.2969 17.25ZM29.5312 18.3906L30.4469 18.7926L30.4504 18.7845L29.5312 18.3906ZM29.5312 33.2188L28.6121 33.6127L28.6156 33.6207L29.5312 33.2188ZM30.2969 34.3594L29.5786 35.0552L29.5897 35.0666L29.6011 35.0776L30.2969 34.3594ZM31.4375 35.125L31.0355 36.0407L31.0436 36.0441L31.4375 35.125ZM35.6406 35.125L35.2467 34.2058L35.2386 34.2094L35.6406 35.125ZM36.7812 34.3594L37.4884 35.0665L37.494 35.0609L37.4995 35.0552L36.7812 34.3594ZM37.5469 33.2188L38.4626 33.6208L38.466 33.6127L37.5469 33.2188ZM37.8281 30.5938L37.9888 29.6067L36.8281 29.4178V30.5938H37.8281ZM39.8438 30.9219H40.8438V30.0715L40.0044 29.9349L39.8438 30.9219ZM38.8438 31.8125C38.8438 32.4413 38.724 33.0177 38.4901 33.5523L40.3224 34.3539C40.6719 33.5552 40.8438 32.7045 40.8438 31.8125H38.8438ZM38.4849 33.5644C38.2526 34.115 37.9338 34.5895 37.5273 34.996L38.9415 36.4102C39.5349 35.8168 39.9974 35.1246 40.3276 34.3418L38.4849 33.5644ZM37.5273 34.996C37.118 35.4053 36.6394 35.7313 36.0836 35.9745L36.8852 37.8068C37.6627 37.4666 38.3507 37.001 38.9415 36.4102L37.5273 34.996ZM36.0957 35.9693C35.5582 36.196 34.9776 36.3125 34.3438 36.3125V38.3125C35.2308 38.3125 36.0772 38.1478 36.8731 37.812L36.0957 35.9693ZM34.3438 36.3125H32.75V38.3125H34.3438V36.3125ZM32.75 36.3125C32.1163 36.3125 31.5283 36.196 30.9774 35.9671L30.2101 37.8141C31.0133 38.1478 31.8629 38.3125 32.75 38.3125V36.3125ZM30.9946 35.9745C30.4388 35.7313 29.9601 35.4053 29.5509 34.996L28.1366 36.4102C28.7274 37.001 29.4154 37.4666 30.1929 37.8068L30.9946 35.9745ZM29.5509 34.996C29.1416 34.5868 28.8156 34.1081 28.5724 33.5523L26.7401 34.3539C27.0803 35.1315 27.5459 35.8195 28.1366 36.4102L29.5509 34.996ZM28.5776 33.5644C28.3509 33.027 28.2344 32.4463 28.2344 31.8125H26.2344C26.2344 32.6995 26.3991 33.5459 26.7349 34.3418L28.5776 33.5644ZM28.2344 31.8125V19.7812H26.2344V31.8125H28.2344ZM28.2344 19.7812C28.2344 19.1474 28.3509 18.5668 28.5776 18.0293L26.7349 17.2519C26.3991 18.0478 26.2344 18.8942 26.2344 19.7812H28.2344ZM28.5724 18.0414C28.8156 17.4856 29.1416 17.007 29.5509 16.5977L28.1366 15.1835C27.5459 15.7743 27.0803 16.4623 26.7401 17.2398L28.5724 18.0414ZM29.5509 16.5977C29.9574 16.1912 30.4319 15.8724 30.9825 15.6401L30.205 13.7974C29.4222 14.1276 28.7301 14.5901 28.1366 15.1835L29.5509 16.5977ZM30.9894 15.6372C31.5375 15.401 32.1213 15.2812 32.75 15.2812V13.2812C31.8579 13.2812 31.0041 13.4531 30.1981 13.8003L30.9894 15.6372ZM32.75 15.2812H34.3438V13.2812H32.75V15.2812ZM34.3438 15.2812C34.9725 15.2812 35.549 15.401 36.0836 15.6349L36.8852 13.8026C36.0865 13.4531 35.2358 13.2812 34.3438 13.2812V15.2812ZM36.0957 15.6401C36.6462 15.8724 37.1207 16.1912 37.5273 16.5977L38.9415 15.1835C38.348 14.5901 37.6559 14.1276 36.8731 13.7974L36.0957 15.6401ZM37.5273 16.5977C37.9338 17.0043 38.2526 17.4788 38.4849 18.0293L40.3276 17.2519C39.9974 16.4691 39.5349 15.777 38.9415 15.1835L37.5273 16.5977ZM38.4901 18.0414C38.724 18.576 38.8438 19.1525 38.8438 19.7812H40.8438C40.8438 18.8892 40.6719 18.0385 40.3224 17.2398L38.4901 18.0414ZM38.8438 19.7812V20.6875H40.8438V19.7812H38.8438ZM39.6905 19.6993L37.6749 20.0118L37.9813 21.9882L39.997 21.6757L39.6905 19.6993ZM38.8281 21V19.7812H36.8281V21H38.8281ZM38.8281 19.7812C38.8281 19.153 38.7096 18.5514 38.4625 17.9886L36.6312 18.7926C36.7592 19.084 36.8281 19.4095 36.8281 19.7812H38.8281ZM38.466 17.9967C38.2306 17.4473 37.905 16.9596 37.4884 16.5429L36.0741 17.9571C36.3033 18.1863 36.4882 18.4589 36.6277 18.7845L38.466 17.9967ZM37.4884 16.5429C37.0717 16.1262 36.5839 15.8007 36.0345 15.5652L35.2467 17.4035C35.5723 17.5431 35.845 17.7279 36.0741 17.9571L37.4884 16.5429ZM36.0426 15.5687C35.4799 15.3217 34.8783 15.2031 34.25 15.2031V17.2031C34.6217 17.2031 34.9472 17.2721 35.2386 17.4L36.0426 15.5687ZM34.25 15.2031H32.8438V17.2031H34.25V15.2031ZM32.8438 15.2031C32.2153 15.2031 31.6118 15.3217 31.0436 15.5652L31.8314 17.4035C32.1382 17.272 32.4722 17.2031 32.8438 17.2031V15.2031ZM31.0355 15.5687C30.5001 15.8038 30.0203 16.1257 29.6011 16.5318L30.9927 17.9682C31.2401 17.7285 31.5207 17.54 31.8395 17.4L31.0355 15.5687ZM29.5898 16.5429C29.1731 16.9596 28.8476 17.4473 28.6121 17.9967L30.4504 18.7845C30.5899 18.4589 30.7748 18.1863 31.004 17.9571L29.5898 16.5429ZM28.6156 17.9886C28.3686 18.5514 28.25 19.153 28.25 19.7812H30.25C30.25 19.4095 30.3189 19.084 30.4469 18.7926L28.6156 17.9886ZM28.25 19.7812V31.8125H30.25V19.7812H28.25ZM28.25 31.8125C28.25 32.441 28.3686 33.0445 28.6121 33.6127L30.4504 32.8248C30.3189 32.518 30.25 32.184 30.25 31.8125H28.25ZM28.6156 33.6207C28.8507 34.1562 29.1725 34.636 29.5786 35.0552L31.0151 33.6636C30.7754 33.4161 30.5868 33.1355 30.4469 32.8168L28.6156 33.6207ZM29.6011 35.0776C30.0203 35.4837 30.5001 35.8056 31.0355 36.0406L31.8395 34.2094C31.5207 34.0694 31.2401 33.8809 30.9927 33.6411L29.6011 35.0776ZM31.0436 36.0441C31.6118 36.2877 32.2153 36.4062 32.8438 36.4062V34.4062C32.4722 34.4062 32.1382 34.3373 31.8314 34.2059L31.0436 36.0441ZM32.8438 36.4062H34.25V34.4062H32.8438V36.4062ZM34.25 36.4062C34.8783 36.4062 35.4799 36.2877 36.0426 36.0406L35.2386 34.2094C34.9472 34.3373 34.6217 34.4062 34.25 34.4062V36.4062ZM36.0345 36.0441C36.5839 35.8087 37.0717 35.4831 37.4884 35.0665L36.0741 33.6523C35.845 33.8814 35.5723 34.0663 35.2467 34.2059L36.0345 36.0441ZM37.4995 35.0552C37.9056 34.636 38.2275 34.1562 38.4625 33.6207L36.6312 32.8168C36.4913 33.1355 36.3028 33.4161 36.063 33.6636L37.4995 35.0552ZM38.466 33.6127C38.7095 33.0445 38.8281 32.441 38.8281 31.8125H36.8281C36.8281 32.184 36.7592 32.518 36.6277 32.8248L38.466 33.6127ZM38.8281 31.8125V30.5938H36.8281V31.8125H38.8281ZM37.6674 31.5808L39.6831 31.9089L40.0044 29.9349L37.9888 29.6067L37.6674 31.5808ZM38.8438 30.9219V31.8125H40.8438V30.9219H38.8438ZM54.875 37L54.0311 37.5364L54.3257 38H54.875V37ZM48.7969 27.4375L49.6408 26.9011L49.3462 26.4375H48.7969V27.4375ZM46.0312 27.4375V26.4375H45.0312V27.4375H46.0312ZM46.0312 37V38H47.0312V37H46.0312ZM44.0156 37H43.0156V38H44.0156V37ZM44.0156 14.5938V13.5938H43.0156V14.5938H44.0156ZM53.2656 15.0312L52.8648 15.9475L52.8769 15.9526L53.2656 15.0312ZM56.1875 17.9688L55.264 18.3524L55.2676 18.361L55.2713 18.3696L56.1875 17.9688ZM56.1875 24.0781L55.2691 23.6825L55.2661 23.6894L56.1875 24.0781ZM53.2656 27.0156L53.6544 27.9371L53.6664 27.9318L53.2656 27.0156ZM51.125 27.4375V26.4375H49.3045L50.2811 27.9739L51.125 27.4375ZM57.2031 37V38H59.0237L58.0471 36.4636L57.2031 37ZM54.3281 18.7188L53.4089 19.1127L53.4125 19.1207L54.3281 18.7188ZM53.5625 17.5781L52.8443 18.2739L52.8498 18.2796L52.8554 18.2852L53.5625 17.5781ZM52.4219 16.7969L52.0199 17.7126L52.028 17.716L52.4219 16.7969ZM46.0312 16.5156V15.5156H45.0312V16.5156H46.0312ZM46.0312 25.5156H45.0312V26.5156H46.0312V25.5156ZM52.4219 25.2344L52.0279 24.3152L52.0199 24.3187L52.4219 25.2344ZM53.5625 24.4688L54.2696 25.1759L54.2752 25.1702L54.2807 25.1645L53.5625 24.4688ZM54.3281 23.3281L55.2438 23.7301L55.2473 23.722L54.3281 23.3281ZM55.7189 36.4636L49.6408 26.9011L47.9529 27.9739L54.0311 37.5364L55.7189 36.4636ZM48.7969 26.4375H46.0312V28.4375H48.7969V26.4375ZM45.0312 27.4375V37H47.0312V27.4375H45.0312ZM46.0312 36H44.0156V38H46.0312V36ZM45.0156 37V14.5938H43.0156V37H45.0156ZM44.0156 15.5938H51.125V13.5938H44.0156V15.5938ZM51.125 15.5938C51.7538 15.5938 52.3302 15.7135 52.8648 15.9474L53.6664 14.1151C52.8677 13.7656 52.017 13.5938 51.125 13.5938V15.5938ZM52.8769 15.9526C53.4275 16.1849 53.902 16.5037 54.3085 16.9102L55.7227 15.496C55.1293 14.9026 54.4371 14.4401 53.6543 14.1099L52.8769 15.9526ZM54.3085 16.9102C54.7125 17.3142 55.0311 17.7917 55.264 18.3524L57.111 17.5851C56.7814 16.7916 56.3188 16.0921 55.7227 15.496L54.3085 16.9102ZM55.2713 18.3696C55.5052 18.9042 55.625 19.4806 55.625 20.1094H57.625C57.625 19.2173 57.4531 18.3667 57.1037 17.5679L55.2713 18.3696ZM55.625 20.1094V21.9219H57.625V20.1094H55.625ZM55.625 21.9219C55.625 22.5506 55.5052 23.1343 55.2691 23.6825L57.1059 24.4737C57.4531 23.6678 57.625 22.814 57.625 21.9219H55.625ZM55.2661 23.6894C55.0339 24.24 54.7151 24.7145 54.3085 25.121L55.7227 26.5352C56.3162 25.9418 56.7786 25.2496 57.1089 24.4668L55.2661 23.6894ZM54.3085 25.121C53.8993 25.5303 53.4206 25.8563 52.8648 26.0995L53.6664 27.9318C54.444 27.5916 55.132 27.126 55.7227 26.5352L54.3085 25.121ZM52.8769 26.0943C52.3395 26.321 51.7588 26.4375 51.125 26.4375V28.4375C52.012 28.4375 52.8584 28.2728 53.6543 27.937L52.8769 26.0943ZM50.2811 27.9739L56.3592 37.5364L58.0471 36.4636L51.9689 26.9011L50.2811 27.9739ZM57.2031 36H54.875V38H57.2031V36ZM55.6094 20.1094C55.6094 19.4811 55.4908 18.8795 55.2438 18.3168L53.4125 19.1207C53.5404 19.4122 53.6094 19.7377 53.6094 20.1094H55.6094ZM55.2473 18.3248C55.0118 17.7754 54.6863 17.2877 54.2696 16.871L52.8554 18.2852C53.0846 18.5144 53.2694 18.7871 53.409 19.1127L55.2473 18.3248ZM54.2807 16.8823C53.8632 16.4513 53.3719 16.1161 52.8158 15.8777L52.028 17.716C52.3468 17.8527 52.616 18.0383 52.8443 18.2739L54.2807 16.8823ZM52.8239 15.8812C52.2611 15.6342 51.6595 15.5156 51.0312 15.5156V17.5156C51.403 17.5156 51.7285 17.5846 52.0199 17.7125L52.8239 15.8812ZM51.0312 15.5156H46.0312V17.5156H51.0312V15.5156ZM45.0312 16.5156V25.5156H47.0312V16.5156H45.0312ZM46.0312 26.5156H51.0312V24.5156H46.0312V26.5156ZM51.0312 26.5156C51.6595 26.5156 52.2611 26.3971 52.8239 26.15L52.0199 24.3187C51.7285 24.4467 51.403 24.5156 51.0312 24.5156V26.5156ZM52.8158 26.1535C53.3652 25.9181 53.8529 25.5925 54.2696 25.1759L52.8554 23.7616C52.6262 23.9908 52.3536 24.1757 52.028 24.3152L52.8158 26.1535ZM54.2807 25.1645C54.6868 24.7454 55.0087 24.2655 55.2438 23.7301L53.4125 22.9261C53.2725 23.2449 53.084 23.5255 52.8443 23.773L54.2807 25.1645ZM55.2473 23.722C55.4908 23.1538 55.6094 22.5503 55.6094 21.9219H53.6094C53.6094 22.2934 53.5405 22.6274 53.409 22.9342L55.2473 23.722ZM55.6094 21.9219V20.1094H53.6094V21.9219H55.6094ZM61.0625 37H60.0625V38H61.0625V37ZM61.0625 14.5938V13.5938H60.0625V14.5938H61.0625ZM73.6719 14.5938H74.6719V13.5938H73.6719V14.5938ZM73.6719 16.5156V17.5156H74.6719V16.5156H73.6719ZM63.0781 16.5156V15.5156H62.0781V16.5156H63.0781ZM63.0781 24.8438H62.0781V25.8438H63.0781V24.8438ZM71.6562 24.8438H72.6562V23.8438H71.6562V24.8438ZM71.6562 26.7656V27.7656H72.6562V26.7656H71.6562ZM63.0781 26.7656V25.7656H62.0781V26.7656H63.0781ZM63.0781 35.0781H62.0781V36.0781H63.0781V35.0781ZM73.6719 35.0781H74.6719V34.0781H73.6719V35.0781ZM73.6719 37V38H74.6719V37H73.6719ZM62.0625 37V14.5938H60.0625V37H62.0625ZM61.0625 15.5938H73.6719V13.5938H61.0625V15.5938ZM72.6719 14.5938V16.5156H74.6719V14.5938H72.6719ZM73.6719 15.5156H63.0781V17.5156H73.6719V15.5156ZM62.0781 16.5156V24.8438H64.0781V16.5156H62.0781ZM63.0781 25.8438H71.6562V23.8438H63.0781V25.8438ZM70.6562 24.8438V26.7656H72.6562V24.8438H70.6562ZM71.6562 25.7656H63.0781V27.7656H71.6562V25.7656ZM62.0781 26.7656V35.0781H64.0781V26.7656H62.0781ZM63.0781 36.0781H73.6719V34.0781H63.0781V36.0781ZM72.6719 35.0781V37H74.6719V35.0781H72.6719ZM73.6719 36H61.0625V38H73.6719V36ZM85.9375 31.7812L86.8993 31.5077L86.6927 30.7812H85.9375V31.7812ZM78.8438 31.7812V30.7812H78.0863L77.8811 31.5103L78.8438 31.7812ZM77.375 37V38H78.1324L78.3376 37.2709L77.375 37ZM75.2812 37L74.3216 36.7189L73.9464 38H75.2812V37ZM81.8438 14.5938V13.5938H81.0946L80.8841 14.3127L81.8438 14.5938ZM82.9062 14.5938L83.8656 14.3114L83.6544 13.5938H82.9062V14.5938ZM89.5 37V38H90.8367L90.4593 36.7177L89.5 37ZM87.4219 37L86.46 37.2736L86.6666 38H87.4219V37ZM79.3906 29.8594L78.4288 29.5858L78.0665 30.8594H79.3906V29.8594ZM85.4062 29.8594V30.8594H86.7323L86.3677 29.5845L85.4062 29.8594ZM82.4531 19.5312L81.456 19.6065L81.4636 19.7082L81.4917 19.8062L82.4531 19.5312ZM82.3906 18.7031L83.3878 18.6279H81.3935L82.3906 18.7031ZM82.3281 19.5312L83.29 19.8048L83.3177 19.7074L83.3253 19.6065L82.3281 19.5312ZM85.9375 30.7812H78.8438V32.7812H85.9375V30.7812ZM77.8811 31.5103L76.4124 36.7291L78.3376 37.2709L79.8064 32.0522L77.8811 31.5103ZM77.375 36H75.2812V38H77.375V36ZM76.2409 37.2811L82.8034 14.8748L80.8841 14.3127L74.3216 36.7189L76.2409 37.2811ZM81.8438 15.5938H82.9062V13.5938H81.8438V15.5938ZM81.9469 14.8761L88.5407 37.2823L90.4593 36.7177L83.8656 14.3114L81.9469 14.8761ZM89.5 36H87.4219V38H89.5V36ZM88.3837 36.7264L86.8993 31.5077L84.9757 32.0548L86.46 37.2736L88.3837 36.7264ZM79.3906 30.8594H85.4062V28.8594H79.3906V30.8594ZM86.3677 29.5845L83.4146 19.2563L81.4917 19.8062L84.4448 30.1343L86.3677 29.5845ZM83.4503 19.456L83.3878 18.6279L81.3935 18.7784L81.456 19.6065L83.4503 19.456ZM81.3935 18.6279L81.331 19.456L83.3253 19.6065L83.3878 18.7784L81.3935 18.6279ZM81.3663 19.2577L78.4288 29.5858L80.3525 30.1329L83.29 19.8048L81.3663 19.2577ZM102.906 37L102.062 37.5364L102.357 38H102.906V37ZM96.8281 27.4375L97.6721 26.9011L97.3774 26.4375H96.8281V27.4375ZM94.0625 27.4375V26.4375H93.0625V27.4375H94.0625ZM94.0625 37V38H95.0625V37H94.0625ZM92.0469 37H91.0469V38H92.0469V37ZM92.0469 14.5938V13.5938H91.0469V14.5938H92.0469ZM101.297 15.0312L100.896 15.9475L100.908 15.9526L101.297 15.0312ZM104.219 17.9688L103.295 18.3524L103.299 18.361L103.303 18.3696L104.219 17.9688ZM104.219 24.0781L103.3 23.6825L103.297 23.6894L104.219 24.0781ZM101.297 27.0156L101.686 27.9371L101.698 27.9318L101.297 27.0156ZM99.1562 27.4375V26.4375H97.3357L98.3123 27.9739L99.1562 27.4375ZM105.234 37V38H107.055L106.078 36.4636L105.234 37ZM102.359 18.7188L101.44 19.1127L101.444 19.1207L102.359 18.7188ZM101.594 17.5781L100.876 18.2739L100.881 18.2796L100.887 18.2852L101.594 17.5781ZM100.453 16.7969L100.051 17.7126L100.059 17.716L100.453 16.7969ZM94.0625 16.5156V15.5156H93.0625V16.5156H94.0625ZM94.0625 25.5156H93.0625V26.5156H94.0625V25.5156ZM100.453 25.2344L100.059 24.3152L100.051 24.3187L100.453 25.2344ZM101.594 24.4688L102.301 25.1759L102.306 25.1702L102.312 25.1645L101.594 24.4688ZM102.359 23.3281L103.275 23.7301L103.279 23.722L102.359 23.3281ZM103.75 36.4636L97.6721 26.9011L95.9842 27.9739L102.062 37.5364L103.75 36.4636ZM96.8281 26.4375H94.0625V28.4375H96.8281V26.4375ZM93.0625 27.4375V37H95.0625V27.4375H93.0625ZM94.0625 36H92.0469V38H94.0625V36ZM93.0469 37V14.5938H91.0469V37H93.0469ZM92.0469 15.5938H99.1562V13.5938H92.0469V15.5938ZM99.1562 15.5938C99.785 15.5938 100.361 15.7135 100.896 15.9474L101.698 14.1151C100.899 13.7656 100.048 13.5938 99.1562 13.5938V15.5938ZM100.908 15.9526C101.459 16.1849 101.933 16.5037 102.34 16.9102L103.754 15.496C103.161 14.9026 102.468 14.4401 101.686 14.1099L100.908 15.9526ZM102.34 16.9102C102.744 17.3142 103.062 17.7917 103.295 18.3524L105.142 17.5851C104.813 16.7916 104.35 16.0921 103.754 15.496L102.34 16.9102ZM103.303 18.3696C103.536 18.9042 103.656 19.4806 103.656 20.1094H105.656C105.656 19.2173 105.484 18.3667 105.135 17.5679L103.303 18.3696ZM103.656 20.1094V21.9219H105.656V20.1094H103.656ZM103.656 21.9219C103.656 22.5506 103.536 23.1343 103.3 23.6825L105.137 24.4737C105.484 23.6678 105.656 22.814 105.656 21.9219H103.656ZM103.297 23.6894C103.065 24.24 102.746 24.7145 102.34 25.121L103.754 26.5352C104.347 25.9418 104.81 25.2496 105.14 24.4668L103.297 23.6894ZM102.34 25.121C101.931 25.5303 101.452 25.8563 100.896 26.0995L101.698 27.9318C102.475 27.5916 103.163 27.126 103.754 26.5352L102.34 25.121ZM100.908 26.0943C100.371 26.321 99.7901 26.4375 99.1562 26.4375V28.4375C100.043 28.4375 100.89 28.2728 101.686 27.937L100.908 26.0943ZM98.3123 27.9739L104.39 37.5364L106.078 36.4636L100 26.9011L98.3123 27.9739ZM105.234 36H102.906V38H105.234V36ZM103.641 20.1094C103.641 19.4811 103.522 18.8795 103.275 18.3168L101.444 19.1207C101.572 19.4122 101.641 19.7377 101.641 20.1094H103.641ZM103.279 18.3248C103.043 17.7754 102.718 17.2877 102.301 16.871L100.887 18.2852C101.116 18.5144 101.301 18.7871 101.44 19.1127L103.279 18.3248ZM102.312 16.8823C101.894 16.4513 101.403 16.1161 100.847 15.8777L100.059 17.716C100.378 17.8527 100.647 18.0383 100.876 18.2739L102.312 16.8823ZM100.855 15.8812C100.292 15.6342 99.6908 15.5156 99.0625 15.5156V17.5156C99.4342 17.5156 99.7597 17.5846 100.051 17.7125L100.855 15.8812ZM99.0625 15.5156H94.0625V17.5156H99.0625V15.5156ZM93.0625 16.5156V25.5156H95.0625V16.5156H93.0625ZM94.0625 26.5156H99.0625V24.5156H94.0625V26.5156ZM99.0625 26.5156C99.6908 26.5156 100.292 26.3971 100.855 26.15L100.051 24.3187C99.7597 24.4467 99.4342 24.5156 99.0625 24.5156V26.5156ZM100.847 26.1535C101.396 25.9181 101.884 25.5925 102.301 25.1759L100.887 23.7616C100.657 23.9908 100.385 24.1757 100.059 24.3152L100.847 26.1535ZM102.312 25.1645C102.718 24.7454 103.04 24.2655 103.275 23.7301L101.444 22.9261C101.304 23.2449 101.115 23.5255 100.876 23.773L102.312 25.1645ZM103.279 23.722C103.522 23.1538 103.641 22.5503 103.641 21.9219H101.641C101.641 22.2934 101.572 22.6274 101.44 22.9342L103.279 23.722ZM103.641 21.9219V20.1094H101.641V21.9219H103.641Z" fill="black" mask="url(#path-2-outside-1_225_16)"/>
<path d="M128 35L143 15" stroke="black" stroke-width="5" stroke-linecap="round"/>
<path d="M120 31L128 35" stroke="black" stroke-width="5" stroke-linecap="round"/>
</svg>
